<?xml version="1.0" encoding="UTF-8" standalone="no"?>
<!-- Generator: Adobe Illustrator 18.0.0, SVG Export Plug-In . SVG Version: 6.00 Build 0)  -->

<svg
   xmlns:dc="http://purl.org/dc/elements/1.1/"
   xmlns:cc="http://creativecommons.org/ns#"
   xmlns:rdf="http://www.w3.org/1999/02/22-rdf-syntax-ns#"
   xmlns:svg="http://www.w3.org/2000/svg"
   xmlns="http://www.w3.org/2000/svg"
   xmlns:sodipodi="http://sodipodi.sourceforge.net/DTD/sodipodi-0.dtd"
   xmlns:inkscape="http://www.inkscape.org/namespaces/inkscape"
   version="1.1"
   id="GraphQL_Logo"
   x="0px"
   y="0px"
   viewBox="0 0 400 400"
   enable-background="new 0 0 400 400"
   xml:space="preserve"
   sodipodi:docname="GraphQL.svg"
   inkscape:version="0.92.3 (2405546, 2018-03-11)"><metadata
   id="metadata75"><rdf:RDF><cc:Work
       rdf:about=""><dc:format>image/svg+xml</dc:format><dc:type
         rdf:resource="http://purl.org/dc/dcmitype/StillImage" /><dc:title></dc:title></cc:Work></rdf:RDF></metadata><defs
   id="defs73">
	
	
	
	
	
	
	
	
	
	
	
	
	
	
	
</defs><sodipodi:namedview
   pagecolor="#ffffff"
   bordercolor="#666666"
   borderopacity="1"
   objecttolerance="10"
   gridtolerance="10"
   guidetolerance="10"
   inkscape:pageopacity="0"
   inkscape:pageshadow="2"
   inkscape:window-width="2560"
   inkscape:window-height="1017"
   id="namedview71"
   showgrid="false"
   inkscape:zoom="0.59"
   inkscape:cx="-112.71186"
   inkscape:cy="200"
   inkscape:window-x="-8"
   inkscape:window-y="-8"
   inkscape:window-maximized="1"
   inkscape:current-layer="GraphQL_Logo" />
<g
   id="g6"
   style="fill:#000000;fill-opacity:1">
		<g
   id="g4"
   style="fill:#000000;fill-opacity:1">
			
				<rect
   style="fill:#000000;fill-opacity:1"
   id="rect2"
   height="320.29999"
   width="16.6"
   transform="matrix(-0.866,-0.5,0.5,-0.866,163.3196,363.3136)"
   y="-0.40000001"
   x="122" />
		</g>
	</g><g
   id="g12"
   style="fill:#000000;fill-opacity:1">
		<g
   id="g10"
   style="fill:#000000;fill-opacity:1">
			<rect
   style="fill:#000000;fill-opacity:1"
   id="rect8"
   height="16.6"
   width="320.29999"
   y="272.20001"
   x="39.799999" />
		</g>
	</g><g
   id="g18"
   style="fill:#000000;fill-opacity:1">
		<g
   id="g16"
   style="fill:#000000;fill-opacity:1">
			
				<rect
   style="fill:#000000;fill-opacity:1"
   id="rect14"
   height="16.6"
   width="185"
   transform="matrix(-0.866,-0.5,0.5,-0.866,83.0693,663.3409)"
   y="312.20001"
   x="37.900002" />
		</g>
	</g><g
   id="g24"
   style="fill:#000000;fill-opacity:1">
		<g
   id="g22"
   style="fill:#000000;fill-opacity:1">
			
				<rect
   style="fill:#000000;fill-opacity:1"
   id="rect20"
   height="16.6"
   width="185"
   transform="matrix(-0.866,-0.5,0.5,-0.866,463.3409,283.0693)"
   y="71.099998"
   x="177.10001" />
		</g>
	</g><g
   id="g30"
   style="fill:#000000;fill-opacity:1">
		<g
   id="g28"
   style="fill:#000000;fill-opacity:1">
			
				<rect
   style="fill:#000000;fill-opacity:1"
   id="rect26"
   height="185"
   width="16.6"
   transform="matrix(-0.5,-0.866,0.866,-0.5,126.7903,232.1221)"
   y="-13"
   x="122.1" />
		</g>
	</g><g
   id="g36"
   style="fill:#000000;fill-opacity:1">
		<g
   id="g34"
   style="fill:#000000;fill-opacity:1">
			
				<rect
   style="fill:#000000;fill-opacity:1"
   id="rect32"
   height="16.6"
   width="320.29999"
   transform="matrix(-0.5,-0.866,0.866,-0.5,266.0828,473.3766)"
   y="151.60001"
   x="109.6" />
		</g>
	</g><g
   id="g42"
   style="fill:#000000;fill-opacity:1">
		<g
   id="g40"
   style="fill:#000000;fill-opacity:1">
			<rect
   style="fill:#000000;fill-opacity:1"
   id="rect38"
   height="185"
   width="16.6"
   y="107.5"
   x="52.5" />
		</g>
	</g><g
   id="g48"
   style="fill:#000000;fill-opacity:1">
		<g
   id="g46"
   style="fill:#000000;fill-opacity:1">
			<rect
   style="fill:#000000;fill-opacity:1"
   id="rect44"
   height="185"
   width="16.6"
   y="107.5"
   x="330.89999" />
		</g>
	</g><g
   id="g54"
   style="fill:#000000;fill-opacity:1">
		<g
   id="g52"
   style="fill:#000000;fill-opacity:1">
			
				<rect
   style="fill:#000000;fill-opacity:1"
   id="rect50"
   height="160.89999"
   width="14.5"
   transform="matrix(-0.5,-0.866,0.866,-0.5,126.7953,714.2875)"
   y="240.10001"
   x="262.39999" />
		</g>
	</g><path
   style="fill:#000000;fill-opacity:1"
   inkscape:connector-curvature="0"
   id="path56"
   d="m 369.5,297.9 c -9.6,16.7 -31,22.4 -47.7,12.8 -16.7,-9.6 -22.4,-31 -12.8,-47.7 9.6,-16.7 31,-22.4 47.7,-12.8 16.8,9.7 22.5,31 12.8,47.7" /><path
   style="fill:#000000;fill-opacity:1"
   inkscape:connector-curvature="0"
   id="path58"
   d="m 90.9,137 c -9.6,16.7 -31,22.4 -47.7,12.8 -16.7,-9.6 -22.4,-31 -12.8,-47.7 9.6,-16.7 31,-22.4 47.7,-12.8 16.7,9.7 22.4,31 12.8,47.7" /><path
   style="fill:#000000;fill-opacity:1"
   inkscape:connector-curvature="0"
   id="path60"
   d="m 30.5,297.9 c -9.6,-16.7 -3.9,-38 12.8,-47.7 16.7,-9.6 38,-3.9 47.7,12.8 9.6,16.7 3.9,38 -12.8,47.7 -16.8,9.6 -38.1,3.9 -47.7,-12.8" /><path
   style="fill:#000000;fill-opacity:1"
   inkscape:connector-curvature="0"
   id="path62"
   d="m 309.1,137 c -9.6,-16.7 -3.9,-38 12.8,-47.7 16.7,-9.6 38,-3.9 47.7,12.8 9.6,16.7 3.9,38 -12.8,47.7 -16.7,9.6 -38.1,3.9 -47.7,-12.8" /><path
   style="fill:#000000;fill-opacity:1"
   inkscape:connector-curvature="0"
   id="path64"
   d="m 200,395.8 c -19.3,0 -34.9,-15.6 -34.9,-34.9 0,-19.3 15.6,-34.9 34.9,-34.9 19.3,0 34.9,15.6 34.9,34.9 0,19.2 -15.6,34.9 -34.9,34.9" /><path
   style="fill:#000000;fill-opacity:1"
   inkscape:connector-curvature="0"
   id="path66"
   d="m 200,74 c -19.3,0 -34.9,-15.6 -34.9,-34.9 0,-19.3 15.6,-34.9 34.9,-34.9 19.3,0 34.9,15.6 34.9,34.9 0,19.3 -15.6,34.9 -34.9,34.9" />
</svg>