<?xml version="1.0" encoding="UTF-8" standalone="no"?>
<!-- Generator: Adobe Illustrator 16.0.0, SVG Export Plug-In . SVG Version: 6.00 Build 0)  -->

<svg
   xmlns:dc="http://purl.org/dc/elements/1.1/"
   xmlns:cc="http://creativecommons.org/ns#"
   xmlns:rdf="http://www.w3.org/1999/02/22-rdf-syntax-ns#"
   xmlns:svg="http://www.w3.org/2000/svg"
   xmlns="http://www.w3.org/2000/svg"
   xmlns:sodipodi="http://sodipodi.sourceforge.net/DTD/sodipodi-0.dtd"
   xmlns:inkscape="http://www.inkscape.org/namespaces/inkscape"
   version="1.1"
   id="Capa_1"
   x="0px"
   y="0px"
   width="97.637px"
   height="97.637px"
   viewBox="0 0 97.637 97.637"
   style="enable-background:new 0 0 97.637 97.637;"
   xml:space="preserve"
   sodipodi:docname="twitter-social-logotype.svg"
   inkscape:export-filename="C:\Users\letgo\Documents\graphql\src\assets\imgs\twitter.png"
   inkscape:export-xdpi="96"
   inkscape:export-ydpi="96"
   inkscape:version="0.92.3 (2405546, 2018-03-11)"><metadata
   id="metadata6605"><rdf:RDF><cc:Work
       rdf:about=""><dc:format>image/svg+xml</dc:format><dc:type
         rdf:resource="http://purl.org/dc/dcmitype/StillImage" /></cc:Work></rdf:RDF></metadata><defs
   id="defs6603" /><sodipodi:namedview
   pagecolor="#ffffff"
   bordercolor="#666666"
   borderopacity="1"
   objecttolerance="10"
   gridtolerance="10"
   guidetolerance="10"
   inkscape:pageopacity="0"
   inkscape:pageshadow="2"
   inkscape:window-width="2560"
   inkscape:window-height="1017"
   id="namedview6601"
   showgrid="false"
   inkscape:zoom="2.4171164"
   inkscape:cx="48.818501"
   inkscape:cy="48.818501"
   inkscape:window-x="-8"
   inkscape:window-y="-8"
   inkscape:window-maximized="1"
   inkscape:current-layer="Capa_1" />
<g
   id="g6568">
	<path
   d="M97.523,18.526c-0.14-0.165-0.371-0.221-0.568-0.131c-2.919,1.295-5.99,2.226-9.153,2.776   c3.358-2.526,5.86-6.024,7.143-10.035c0.062-0.192-0.002-0.402-0.159-0.527c-0.158-0.125-0.377-0.141-0.55-0.038   c-3.782,2.243-7.878,3.824-12.18,4.701c-3.812-3.956-9.135-6.219-14.644-6.219c-11.204,0-20.318,9.114-20.318,20.317   c0,1.355,0.131,2.697,0.391,4c-15.518-0.958-30.028-8.408-39.894-20.509c-0.101-0.124-0.254-0.193-0.414-0.177   c-0.159,0.012-0.301,0.102-0.381,0.239c-1.8,3.088-2.751,6.621-2.751,10.215c0,6.229,2.83,12.053,7.649,15.896   c-2.481-0.298-4.904-1.079-7.089-2.292c-0.147-0.083-0.33-0.082-0.477,0.003c-0.147,0.084-0.24,0.24-0.244,0.41l-0.002,0.26   c0,8.946,5.895,16.801,14.282,19.409c-2.209,0.356-4.501,0.332-6.754-0.098c-0.166-0.031-0.34,0.026-0.454,0.154   c-0.113,0.128-0.151,0.307-0.099,0.469c2.515,7.85,9.503,13.355,17.637,14.041c-6.785,4.971-14.805,7.59-23.279,7.59   c-1.561,0-3.133-0.093-4.673-0.274c-0.22-0.025-0.438,0.106-0.514,0.317c-0.076,0.213,0.005,0.451,0.195,0.572   c9.17,5.881,19.773,8.988,30.664,8.988c35.625,0,56.913-28.938,56.913-56.914c0-0.779-0.015-1.554-0.046-2.327   c3.843-2.811,7.142-6.252,9.802-10.235C97.675,18.929,97.662,18.692,97.523,18.526z"
   id="path6566" />
</g>
<g
   id="g6570">
</g>
<g
   id="g6572">
</g>
<g
   id="g6574">
</g>
<g
   id="g6576">
</g>
<g
   id="g6578">
</g>
<g
   id="g6580">
</g>
<g
   id="g6582">
</g>
<g
   id="g6584">
</g>
<g
   id="g6586">
</g>
<g
   id="g6588">
</g>
<g
   id="g6590">
</g>
<g
   id="g6592">
</g>
<g
   id="g6594">
</g>
<g
   id="g6596">
</g>
<g
   id="g6598">
</g>
</svg>