<?xml version="1.0" encoding="UTF-8" standalone="no"?>
<!-- Generator: Adobe Illustrator 16.0.0, SVG Export Plug-In . SVG Version: 6.00 Build 0)  -->

<svg
   xmlns:dc="http://purl.org/dc/elements/1.1/"
   xmlns:cc="http://creativecommons.org/ns#"
   xmlns:rdf="http://www.w3.org/1999/02/22-rdf-syntax-ns#"
   xmlns:svg="http://www.w3.org/2000/svg"
   xmlns="http://www.w3.org/2000/svg"
   xmlns:sodipodi="http://sodipodi.sourceforge.net/DTD/sodipodi-0.dtd"
   xmlns:inkscape="http://www.inkscape.org/namespaces/inkscape"
   version="1.1"
   id="Capa_1"
   x="0px"
   y="0px"
   width="31.444px"
   height="31.443px"
   viewBox="0 0 31.444 31.443"
   style="enable-background:new 0 0 31.444 31.443;"
   xml:space="preserve"
   sodipodi:docname="slack-symbol.svg"
   inkscape:export-filename="C:\Users\letgo\Documents\graphql\src\assets\imgs\slack.png"
   inkscape:export-xdpi="96"
   inkscape:export-ydpi="96"
   inkscape:version="0.92.3 (2405546, 2018-03-11)"><metadata
   id="metadata5980"><rdf:RDF><cc:Work
       rdf:about=""><dc:format>image/svg+xml</dc:format><dc:type
         rdf:resource="http://purl.org/dc/dcmitype/StillImage" /></cc:Work></rdf:RDF></metadata><defs
   id="defs5978" /><sodipodi:namedview
   pagecolor="#ffffff"
   bordercolor="#666666"
   borderopacity="1"
   objecttolerance="10"
   gridtolerance="10"
   guidetolerance="10"
   inkscape:pageopacity="0"
   inkscape:pageshadow="2"
   inkscape:window-width="2560"
   inkscape:window-height="1017"
   id="namedview5976"
   showgrid="false"
   inkscape:zoom="7.5056449"
   inkscape:cx="15.722"
   inkscape:cy="15.7215"
   inkscape:window-x="-8"
   inkscape:window-y="-8"
   inkscape:window-maximized="1"
   inkscape:current-layer="Capa_1" />
<g
   id="g5943">
	<path
   d="M31.202,16.369c-0.62-1.388-2.249-2.011-3.637-1.391l-1.325,0.594l-3.396-7.591l1.325-0.592   c1.388-0.622,2.01-2.25,1.389-3.637c-0.62-1.389-2.248-2.012-3.637-1.39l-1.324,0.593l-0.593-1.326   c-0.621-1.388-2.249-2.009-3.637-1.388c-1.388,0.62-2.009,2.247-1.389,3.637l0.593,1.325L7.98,8.598L7.388,7.273   c-0.621-1.39-2.249-2.009-3.637-1.39C2.363,6.504,1.742,8.132,2.362,9.52l0.592,1.324L1.63,11.438   c-1.388,0.621-2.01,2.247-1.389,3.636c0.62,1.388,2.249,2.01,3.637,1.39l1.325-0.594l3.394,7.592l-1.325,0.592   c-1.388,0.621-2.009,2.25-1.389,3.637c0.621,1.389,2.249,2.011,3.637,1.391l1.324-0.593l0.593,1.325   c0.621,1.389,2.249,2.01,3.637,1.389c1.387-0.62,2.009-2.248,1.388-3.636l-0.591-1.326l7.591-3.394l0.592,1.321   c0.621,1.391,2.248,2.013,3.637,1.392c1.388-0.619,2.01-2.248,1.389-3.637l-0.592-1.324l1.323-0.594   C31.201,19.384,31.823,17.757,31.202,16.369z M13.623,21.215l-3.395-7.593l7.591-3.394l3.395,7.591L13.623,21.215z"
   id="path5941" />
</g>
<g
   id="g5945">
</g>
<g
   id="g5947">
</g>
<g
   id="g5949">
</g>
<g
   id="g5951">
</g>
<g
   id="g5953">
</g>
<g
   id="g5955">
</g>
<g
   id="g5957">
</g>
<g
   id="g5959">
</g>
<g
   id="g5961">
</g>
<g
   id="g5963">
</g>
<g
   id="g5965">
</g>
<g
   id="g5967">
</g>
<g
   id="g5969">
</g>
<g
   id="g5971">
</g>
<g
   id="g5973">
</g>
</svg>